# xmcd
#
# Track frame offsets:
#	150
#	11134
#	23780
#	33986
#	47517
#	58826
#	71395
#	84382
#	98643
#	110279
#	126372
#	139182
#	149296
#	159770
#	172219
#	182494
#	194046
#	205499
#	215343
#	234011
#	245736
#	255768
#	265156
#
# Disc length: 3729
#
# Revision: 2
# Processed by: cddbd v1.5.1PL0 Copyright (c) Steve Scherf et al.
# Submitted via: EasyCDDAExtractor 4.6.9.1
# Normalized: r0:TDELIM( - );r1:TSWAP
#
DISCID=3f0e8f17
DTITLE=Various Artist - Honeydrippin' Daddy
DYEAR=1998
DGENRE=Beach, Shag and Blues
TTITLE0=Amos Milburn - Let's Rock Awhile
TTITLE1=Amos Milburn - Let's Rock Awhile
TTITLE2=Four Tunes - I Sold My Heart To The Junkman
TTITLE3=Joseph Liggins - Honeydrippin Daddy
TTITLE4=The Mills Brothers - Come Summer
TTITLE5=Willie Mabon - Monday Woman
TTITLE6=Choker Campbell - Pride And Joy
TTITLE7=Buddy Johnson - Be Careful (If You Can't Be Good)
TTITLE8=Arthur Prysock - Slowly
TTITLE9=Jimmy Rogers - You're Sweet
TTITLE10=Billy Eckstine - Wish You Were Here
TTITLE11=Billy Williams - Over The Rainbow
TTITLE12=Roy Hamilton - Why Fight The Feeling
TTITLE13=Joseph Liggins - Pink Champagne
TTITLE14=Jimmy Ricks - Girl Of My Dreams
TTITLE15=The Mills Brothers - Canadian Sunset
TTITLE16=Willie Mabon - Lucinda
TTITLE17=Willie Dixon - That's All I Want
TTITLE18=Freddie Cole - You Are The Sunshine Of My Life
TTITLE19=Frankie Laine - Sunny Side Of The Street
TTITLE20=Richard Wylie - Come To Me
TTITLE21=Billy Williams - Dream Of You
TTITLE22=Monty Alexander - Blues For Stephanie
EXTD=
EXTT0=SACD9801
EXTT1=
EXTT2=
EXTT3=
EXTT4=
EXTT5=
EXTT6=
EXTT7=
EXTT8=
EXTT9=
EXTT10=
EXTT11=
EXTT12=
EXTT13=
EXTT14=
EXTT15=
EXTT16=
EXTT17=
EXTT18=
EXTT19=
EXTT20=
EXTT21=
EXTT22=
PLAYORDER=
